ply
format ascii 1.0
comment VCGLIB generated
element vertex 766
property float x
property float y
property float z
element face 1536
property list uchar int vertex_indices
end_header
0.2138 0.2339 0.09065 
0.1078 0.2532 0.1026 
0.2291 0.2171 0.2249 
0.1108 0.2588 -0.004183 
0 0.2663 0 
0.2056 0.2385 -0.02711 
0.01159 0.2581 -0.09905 
-0.1078 0.2532 -0.1026 
-0.07594 0.2323 -0.1913 
-0.2291 0.2171 -0.2249 
0.04333 0.234 -0.1877 
0.1204 0.2501 -0.1081 
0.1446 0.2273 -0.2063 
0.2115 0.2333 -0.1395 
0.2292 0.2162 -0.2488 
-0.2138 0.2339 -0.09065 
-0.1108 0.2588 0.004183 
-0.2056 0.2385 0.02711 
-0.01159 0.2581 0.09905 
0.07594 0.2323 0.1913 
-0.04333 0.234 0.1877 
-0.1204 0.2501 0.1081 
-0.1446 0.2273 0.2063 
-0.2115 0.2333 0.1395 
-0.2292 0.2162 0.2488 
0.101 -0.2561 0.102 
0.1971 -0.2415 0.09234 
0.2005 -0.227 0.2187 
0.1042 -0.2596 -0.003115 
0.2032 -0.2379 -0.02377 
0 -0.2668 0 
0.1143 -0.2481 -0.1061 
0.2236 -0.2248 -0.1363 
0.1313 -0.2234 -0.2009 
0.2583 -0.206 -0.251 
0.01852 -0.2335 -0.1868 
0.00532 -0.2585 -0.09823 
-0.08985 -0.2348 -0.1944 
-0.101 -0.2561 -0.102 
-0.2005 -0.227 -0.2187 
-0.1971 -0.2415 -0.09234 
-0.1042 -0.2596 0.003115 
-0.2032 -0.2379 0.02377 
-0.1143 -0.2481 0.1061 
-0.2236 -0.2248 0.1363 
-0.1313 -0.2234 0.2009 
-0.2583 -0.206 0.251 
-0.01852 -0.2335 0.1868 
-0.00532 -0.2585 0.09823 
0.08985 -0.2348 0.1944 
-0.4035 0.107 0.07638 
-0.4224 0.079 -0.0798 
-0.4404 -1.5e-05 -0.005179 
-0.3541 0.155 0.002264 
-0.3857 0.1422 -0.1345 
-0.3484 0.176 0.1389 
-0.2938 0.2005 -0.05229 
-0.3263 0.1918 -0.1796 
-0.2826 0.2089 0.07249 
-0.2885 0.2128 0.195 
-0.4049 -0.1069 -0.0857 
-0.4224 -0.07913 0.07054 
-0.355 -0.1549 -0.005314 
-0.3875 -0.1416 0.131 
-0.3487 -0.1764 -0.1423 
-0.2968 -0.1987 0.06623 
-0.3348 -0.1879 0.1889 
-0.2804 -0.21 -0.05825 
-0.2817 -0.2164 -0.1847 
0.4035 0.107 -0.07638 
0.4224 0.079 0.0798 
0.4404 -1.5e-05 0.005179 
0.3541 0.155 -0.002264 
0.3857 0.1422 0.1345 
0.3484 0.176 -0.1389 
0.2938 0.2005 0.05229 
0.3263 0.1918 0.1796 
0.2826 0.2089 -0.07249 
0.2885 0.2128 -0.195 
0.4049 -0.1069 0.0857 
0.4224 -0.07913 -0.07054 
0.355 -0.1549 0.005314 
0.3875 -0.1416 -0.131 
0.3487 -0.1764 0.1423 
0.2968 -0.1987 -0.06623 
0.3348 -0.1879 -0.1889 
0.2804 -0.21 0.05825 
0.2817 -0.2164 0.1847 
0.6031 0.07552 -0.6483 
0.5934 0.001736 -0.5082 
0.6207 0.00108 -0.6632 
0.572 0.07537 -0.4957 
0.539 0.001856 -0.3514 
0.5627 0.1387 -0.6353 
0.5173 0.07523 -0.3411 
0.479 0.001181 -0.1888 
0.4569 0.0798 -0.1913 
0.4752 0.1398 -0.3526 
0.5299 0.1381 -0.4919 
0.4749 0.1807 -0.4967 
0.5073 0.1811 -0.6254 
0.4454 0.1958 -0.6193 
0.3022 0.2057 -0.3155 
0.358 0.195 -0.2746 
0.3652 0.1986 -0.4032 
0.4218 0.1843 -0.3769 
0.4151 0.1956 -0.5067 
0.4119 0.1508 -0.2314 
0.524 -0.1823 -0.6916 
0.455 -0.1974 -0.5744 
0.4616 -0.1983 -0.6919 
0.5128 -0.1812 -0.5593 
0.4157 -0.1968 -0.4613 
0.5766 -0.1384 -0.6867 
0.4663 -0.1806 -0.4315 
0.3487 -0.1977 -0.3554 
0.3973 -0.1819 -0.3096 
0.5094 -0.1362 -0.4031 
0.5601 -0.1371 -0.5425 
0.589 -0.07266 -0.5251 
0.611 -0.07388 -0.6769 
0.4727 -0.07256 -0.225 
0.5358 -0.07184 -0.3757 
0.4441 -0.1368 -0.2671 
0.3021 -0.07636 -0.666 
0.274 -0.002833 -0.5747 
0.286 -0.001857 -0.6491 
0.295 -0.07689 -0.5875 
0.2436 -0.003539 -0.5066 
0.3419 -0.1401 -0.6796 
0.2677 -0.07709 -0.5146 
0.1965 -0.003765 -0.4494 
0.2221 -0.07672 -0.4516 
0.1363 -0.003363 -0.4061 
0.3101 -0.1395 -0.5084 
0.3377 -0.14 -0.5914 
0.3939 -0.1825 -0.5864 
0.398 -0.1831 -0.6882 
0.2283 -0.1824 -0.3263 
0.3052 -0.1813 -0.4007 
0.1952 -0.1378 -0.3746 
0.3621 -0.1817 -0.4892 
0.2612 -0.1387 -0.4347 
0.1619 -0.07572 -0.4019 
0.3846 0.1799 -0.6177 
0.3575 0.1793 -0.5196 
0.3325 0.1365 -0.622 
0.3114 0.1806 -0.4303 
0.2507 0.1842 -0.3561 
0.2682 0.1354 -0.459 
0.3095 0.1354 -0.5364 
0.2795 0.07147 -0.5559 
0.2974 0.07264 -0.6331 
0.1275 0.07087 -0.3874 
0.1922 0.07059 -0.4291 
0.1414 0.1381 -0.3504 
0.2438 0.07073 -0.4863 
0.2114 0.1365 -0.3958 
0.1773 0.1892 -0.3019 
0.06747 -0.002245 -0.3792 
0.09177 -0.07429 -0.3694 
-0.005383 -0.000677 -0.3704 
0.01582 -0.07292 -0.3565 
-0.07782 0.001124 -0.3802 
-0.06144 -0.07181 -0.3635 
-0.1455 0.002776 -0.408 
0.03026 -0.1382 -0.3191 
0.1168 -0.1374 -0.3349 
0.1345 -0.1868 -0.2788 
-0.1645 -0.1929 -0.2948 
-0.07047 -0.195 -0.2676 
-0.1422 -0.1386 -0.3503 
0.03104 -0.1926 -0.2616 
-0.05869 -0.1391 -0.3249 
-0.135 -0.07091 -0.389 
0.09066 0.1937 -0.2699 
-0.01073 0.1943 -0.2598 
-0.1212 0.1907 -0.2727 
-0.03136 0.1387 -0.3183 
0.05917 0.1391 -0.3245 
0.05323 0.07134 -0.363 
-0.1706 0.07475 -0.4046 
-0.1011 0.07331 -0.3711 
-0.2005 0.1378 -0.376 
-0.02489 0.07211 -0.3571 
-0.1204 0.1381 -0.3344 
-0.2236 0.1856 -0.3213 
-0.4805 -0.001448 -0.1977 
-0.4739 0.0722 -0.2329 
-0.5412 -0.002437 -0.3577 
-0.538 0.07122 -0.3818 
-0.5955 -0.002438 -0.512 
-0.5916 0.07183 -0.5293 
-0.6223 -0.001671 -0.6651 
-0.51 0.1363 -0.4073 
-0.4424 0.1376 -0.2711 
-0.3901 0.1851 -0.3067 
-0.526 0.1816 -0.6939 
-0.4576 0.1966 -0.5775 
-0.4629 0.1978 -0.6935 
-0.5155 0.1804 -0.5628 
-0.4171 0.1968 -0.4636 
-0.579 0.1376 -0.6895 
-0.4659 0.1812 -0.4336 
-0.3427 0.2009 -0.3514 
-0.5627 0.1363 -0.5466 
-0.6132 0.07311 -0.6795 
-0.2976 -0.2088 -0.3115 
-0.3585 -0.1958 -0.2783 
-0.3675 -0.1987 -0.4074 
-0.4251 -0.1837 -0.3832 
-0.4184 -0.1948 -0.5113 
-0.4774 -0.1801 -0.5008 
-0.4471 -0.1952 -0.6215 
-0.478 -0.1392 -0.359 
-0.4146 -0.1504 -0.2394 
-0.459 -0.07959 -0.2002 
-0.6041 -0.07586 -0.6496 
-0.5737 -0.07565 -0.499 
-0.5634 -0.1387 -0.6363 
-0.5194 -0.07525 -0.3472 
-0.5317 -0.1379 -0.4953 
-0.5083 -0.1807 -0.6268 
-0.2041 0.003795 -0.452 
-0.1992 -0.07028 -0.4316 
-0.2493 0.004066 -0.5095 
-0.2498 -0.07012 -0.4894 
-0.2779 0.003537 -0.5772 
-0.2841 -0.07064 -0.5593 
-0.2883 0.002454 -0.6509 
-0.2725 -0.1355 -0.4611 
-0.2145 -0.1372 -0.3957 
-0.2468 -0.1873 -0.3508 
-0.3871 -0.1791 -0.6206 
-0.3613 -0.1785 -0.524 
-0.3356 -0.1356 -0.6251 
-0.3135 -0.1812 -0.4322 
-0.3139 -0.1347 -0.5402 
-0.3003 -0.07187 -0.6357 
-0.3067 0.1819 -0.4016 
-0.3657 0.181 -0.4925 
-0.3963 0.1818 -0.5888 
-0.3144 0.1388 -0.5114 
-0.2669 0.1379 -0.4379 
-0.2291 0.07609 -0.4545 
-0.3035 0.07672 -0.667 
-0.2979 0.07718 -0.5893 
-0.3426 0.1401 -0.6803 
-0.2726 0.07699 -0.517 
-0.3399 0.1398 -0.5931 
-0.3988 0.1828 -0.6891 
-0.6065 -0.000797 -0.819 
-0.5912 0.0744 -0.8307 
-0.5464 -0.000179 -0.9665 
-0.5266 0.07519 -0.9742 
-0.4471 9.1e-05 -1.096 
-0.4253 0.07548 -1.099 
-0.3168 0.000117 -1.197 
-0.4873 0.1397 -0.9666 
-0.5525 0.1389 -0.8323 
-0.4977 0.1827 -0.8241 
-0.2294 0.1834 -1.123 
-0.2973 0.199 -1.004 
-0.1954 0.199 -1.069 
-0.3441 0.1834 -1.048 
-0.379 0.1989 -0.9152 
-0.264 0.1399 -1.167 
-0.4356 0.1833 -0.9453 
-0.4355 0.1986 -0.8087 
-0.3888 0.1399 -1.081 
-0.2948 0.0755 -1.194 
-0.4478 -0.1969 -0.735 
-0.5078 -0.1821 -0.7552 
-0.4169 -0.1983 -0.8455 
-0.4708 -0.183 -0.8798 
-0.355 -0.1989 -0.9456 
-0.3984 -0.1833 -0.9925 
-0.2669 -0.1991 -1.028 
-0.5152 -0.1397 -0.9143 
-0.5597 -0.1394 -0.7776 
-0.5951 -0.07568 -0.7999 
-0.3248 -0.07529 -1.176 
-0.4494 -0.07531 -1.074 
-0.3174 -0.1398 -1.136 
-0.5422 -0.07546 -0.9448 
-0.4319 -0.1398 -1.037 
-0.2966 -0.1834 -1.084 
-0.2794 0.001311 -0.7251 
-0.2962 -0.07341 -0.7129 
-0.2516 0.0004 -0.7943 
-0.2717 -0.07469 -0.7862 
-0.2059 -0.000104 -0.8538 
-0.2277 -0.0754 -0.8511 
-0.1456 -0.000228 -0.9001 
-0.3104 -0.1389 -0.7937 
-0.3346 -0.1374 -0.711 
-0.3876 -0.1809 -0.719 
-0.2329 -0.1835 -0.9736 
-0.3083 -0.1833 -0.9021 
-0.1983 -0.14 -0.9297 
-0.3612 -0.1825 -0.8151 
-0.2639 -0.1398 -0.8685 
-0.1675 -0.0756 -0.9034 
-0.3742 0.1832 -0.7892 
-0.3249 0.1833 -0.8812 
-0.2539 0.1833 -0.9577 
-0.281 0.1398 -0.8468 
-0.3225 0.14 -0.7672 
-0.2888 0.07605 -0.7447 
-0.1376 0.07517 -0.9209 
-0.2035 0.07521 -0.8762 
-0.145 0.1396 -0.9608 
-0.255 0.0755 -0.8162 
-0.2207 0.1396 -0.9129 
-0.1657 0.1833 -1.013 
-0.1642 6.4e-05 -1.26 
-0.1437 0.07545 -1.251 
1.8e-05 0 -1.281 
0.01755 0.0754 -1.267 
0.1643 -3.6e-05 -1.26 
0.1775 0.07536 -1.242 
0.3169 -7.7e-05 -1.197 
0.03121 0.1398 -1.229 
-0.1206 0.1399 -1.218 
-0.09854 0.1834 -1.166 
0.2968 0.1834 -1.084 
0.1598 0.1991 -1.084 
0.267 0.1991 -1.028 
0.174 0.1834 -1.146 
0.04144 0.199 -1.11 
0.3175 0.1398 -1.136 
0.03908 0.1834 -1.174 
-0.07981 0.199 -1.105 
0.1807 0.1398 -1.202 
0.3249 0.07533 -1.176 
-0.1598 -0.1991 -1.084 
-0.174 -0.1834 -1.146 
-0.04143 -0.199 -1.11 
-0.03907 -0.1834 -1.174 
0.07985 -0.199 -1.105 
0.09858 -0.1834 -1.166 
0.1956 -0.199 -1.069 
-0.03119 -0.1398 -1.229 
-0.1806 -0.1398 -1.202 
-0.1775 -0.07533 -1.242 
0.2949 -0.07546 -1.194 
0.1438 -0.07542 -1.251 
0.2641 -0.1399 -1.167 
-0.01752 -0.07538 -1.267 
0.1207 -0.1399 -1.218 
0.2296 -0.1834 -1.123 
-0.07525 -0.000154 -0.9296 
-0.09579 -0.07554 -0.9385 
1.9e-05 0 -0.9398 
-0.01757 -0.07541 -0.9536 
0.07532 0.000125 -0.9297 
0.06205 -0.07528 -0.9474 
0.1457 0.000187 -0.9002 
-0.03125 -0.1399 -0.9915 
-0.1189 -0.14 -0.9717 
-0.141 -0.1835 -1.023 
0.1659 -0.1833 -1.013 
0.06562 -0.1834 -1.043 
0.1451 -0.1397 -0.961 
-0.03911 -0.1834 -1.047 
0.05891 -0.1398 -0.9877 
0.1378 -0.0752 -0.921 
-0.06557 0.1833 -1.043 
0.03912 0.1834 -1.047 
0.1411 0.1835 -1.023 
0.03127 0.1398 -0.9914 
-0.05885 0.1397 -0.9876 
-0.06197 0.07525 -0.9473 
0.1676 0.07556 -0.9036 
0.09586 0.07552 -0.9386 
0.1984 0.14 -0.9298 
0.0176 0.07539 -0.9535 
0.119 0.14 -0.9718 
0.233 0.1835 -0.9738 
0.4471 -8.3e-05 -1.096 
0.4495 0.07532 -1.074 
0.5461 5.2e-05 -0.9663 
0.5421 0.07538 -0.9449 
0.6056 0.000436 -0.8182 
0.5946 0.07545 -0.7996 
0.5153 0.1396 -0.9146 
0.432 0.1398 -1.038 
0.3986 0.1833 -0.9928 
0.4474 0.1972 -0.7346 
0.5076 0.1822 -0.7552 
0.417 0.1984 -0.8458 
0.471 0.183 -0.8802 
0.3552 0.1989 -0.946 
0.5595 0.1393 -0.7777 
0.2976 -0.199 -1.005 
0.3443 -0.1834 -1.048 
0.3793 -0.1989 -0.9154 
0.4356 -0.1834 -0.9453 
0.4354 -0.1988 -0.8083 
0.4971 -0.1831 -0.8234 
0.4871 -0.1398 -0.9664 
0.3889 -0.1399 -1.082 
0.4253 -0.07548 -1.099 
0.59 -0.07485 -0.8295 
0.5262 -0.07534 -0.974 
0.5514 -0.1394 -0.8312 
0.206 9.6e-05 -0.8539 
0.2037 -0.07522 -0.8763 
0.2514 -0.00027 -0.794 
0.255 -0.07541 -0.8161 
0.2785 -0.000946 -0.7242 
0.2884 -0.07581 -0.7443 
0.2813 -0.1397 -0.847 
0.2209 -0.1396 -0.9131 
0.2542 -0.1833 -0.9579 
0.3743 -0.1833 -0.7892 
0.3253 -0.1833 -0.8814 
0.3225 -0.1399 -0.7671 
0.3085 0.1833 -0.9024 
0.3612 0.1826 -0.8151 
0.3868 0.1813 -0.7181 
0.3102 0.1391 -0.7936 
0.264 0.1398 -0.8687 
0.2278 0.07539 -0.8512 
0.2949 0.07386 -0.7116 
0.2714 0.07484 -0.7859 
0.3334 0.1379 -0.7096 
0.6132 0.07311 0.6795 
0.6065 -0.000797 0.819 
0.6223 -0.001671 0.6651 
0.5912 0.0744 0.8307 
0.5464 -0.000179 0.9665 
0.579 0.1376 0.6895 
0.5266 0.07519 0.9742 
0.4471 9.1e-05 1.096 
0.4253 0.07548 1.099 
0.3168 0.000117 1.197 
0.4873 0.1397 0.9666 
0.5525 0.1389 0.8323 
0.4977 0.1827 0.8241 
0.526 0.1816 0.6939 
0.4629 0.1978 0.6935 
0.2294 0.1834 1.123 
0.2973 0.199 1.004 
0.1954 0.199 1.069 
0.3441 0.1834 1.048 
0.379 0.1989 0.9152 
0.264 0.1399 1.167 
0.4356 0.1833 0.9453 
0.4355 0.1986 0.8087 
0.3888 0.1399 1.081 
0.2948 0.0755 1.194 
0.5083 -0.1807 0.6268 
0.4478 -0.1969 0.735 
0.4471 -0.1952 0.6215 
0.5078 -0.1821 0.7552 
0.4169 -0.1983 0.8455 
0.5634 -0.1387 0.6363 
0.4708 -0.183 0.8798 
0.355 -0.1989 0.9456 
0.3984 -0.1833 0.9925 
0.2669 -0.1991 1.028 
0.5152 -0.1397 0.9143 
0.5597 -0.1394 0.7776 
0.5951 -0.07568 0.7999 
0.6041 -0.07586 0.6496 
0.3248 -0.07529 1.176 
0.4494 -0.07531 1.074 
0.3174 -0.1398 1.136 
0.5422 -0.07546 0.9448 
0.4319 -0.1398 1.037 
0.2966 -0.1834 1.084 
0.3003 -0.07187 0.6357 
0.2794 0.001311 0.7251 
0.2883 0.002454 0.6509 
0.2962 -0.07341 0.7129 
0.2516 0.0004 0.7943 
0.3356 -0.1356 0.6251 
0.2717 -0.07469 0.7862 
0.2059 -0.000104 0.8538 
0.2277 -0.0754 0.8511 
0.1456 -0.000228 0.9001 
0.3104 -0.1389 0.7937 
0.3346 -0.1374 0.711 
0.3876 -0.1809 0.719 
0.3871 -0.1791 0.6206 
0.2329 -0.1835 0.9736 
0.3083 -0.1833 0.9021 
0.1983 -0.14 0.9297 
0.3612 -0.1825 0.8151 
0.2639 -0.1398 0.8685 
0.1675 -0.0756 0.9034 
0.3988 0.1828 0.6891 
0.3742 0.1832 0.7892 
0.3426 0.1401 0.6803 
0.3249 0.1833 0.8812 
0.2539 0.1833 0.9577 
0.281 0.1398 0.8468 
0.3225 0.14 0.7672 
0.2888 0.07605 0.7447 
0.3035 0.07672 0.667 
0.1376 0.07517 0.9209 
0.2035 0.07521 0.8762 
0.145 0.1396 0.9608 
0.255 0.0755 0.8162 
0.2207 0.1396 0.9129 
0.1657 0.1833 1.013 
0.1642 6.4e-05 1.26 
0.1437 0.07545 1.251 
-1.8e-05 0 1.281 
-0.01755 0.0754 1.267 
-0.1643 -3.6e-05 1.26 
-0.1775 0.07536 1.242 
-0.3169 -7.7e-05 1.197 
-0.03121 0.1398 1.229 
0.1206 0.1399 1.218 
0.09854 0.1834 1.166 
-0.2968 0.1834 1.084 
-0.1598 0.1991 1.084 
-0.267 0.1991 1.028 
-0.174 0.1834 1.146 
-0.04144 0.199 1.11 
-0.3175 0.1398 1.136 
-0.03908 0.1834 1.174 
0.07981 0.199 1.105 
-0.1807 0.1398 1.202 
-0.3249 0.07533 1.176 
0.1598 -0.1991 1.084 
0.174 -0.1834 1.146 
0.04143 -0.199 1.11 
0.03907 -0.1834 1.174 
-0.07985 -0.199 1.105 
-0.09858 -0.1834 1.166 
-0.1956 -0.199 1.069 
0.03119 -0.1398 1.229 
0.1806 -0.1398 1.202 
0.1775 -0.07533 1.242 
-0.2949 -0.07546 1.194 
-0.1438 -0.07542 1.251 
-0.2641 -0.1399 1.167 
0.01752 -0.07538 1.267 
-0.1207 -0.1399 1.218 
-0.2296 -0.1834 1.123 
0.07525 -0.000154 0.9296 
0.09579 -0.07554 0.9385 
-1.9e-05 0 0.9398 
0.01757 -0.07541 0.9536 
-0.07532 0.000125 0.9297 
-0.06205 -0.07528 0.9474 
-0.1457 0.000187 0.9002 
0.03125 -0.1399 0.9915 
0.1189 -0.14 0.9717 
0.141 -0.1835 1.023 
-0.1659 -0.1833 1.013 
-0.06562 -0.1834 1.043 
-0.1451 -0.1397 0.961 
0.03911 -0.1834 1.047 
-0.05891 -0.1398 0.9877 
-0.1378 -0.0752 0.921 
0.06557 0.1833 1.043 
-0.03912 0.1834 1.047 
-0.1411 0.1835 1.023 
-0.03127 0.1398 0.9914 
0.05885 0.1397 0.9876 
0.06197 0.07525 0.9473 
-0.1676 0.07556 0.9036 
-0.09586 0.07552 0.9386 
-0.1984 0.14 0.9298 
-0.0176 0.07539 0.9535 
-0.119 0.14 0.9718 
-0.233 0.1835 0.9738 
-0.4471 -8.3e-05 1.096 
-0.4495 0.07532 1.074 
-0.5461 5.2e-05 0.9663 
-0.5421 0.07538 0.9449 
-0.6056 0.000436 0.8182 
-0.5946 0.07545 0.7996 
-0.6207 0.00108 0.6632 
-0.5153 0.1396 0.9146 
-0.432 0.1398 1.038 
-0.3986 0.1833 0.9928 
-0.5073 0.1811 0.6254 
-0.4474 0.1972 0.7346 
-0.4454 0.1958 0.6193 
-0.5076 0.1822 0.7552 
-0.417 0.1984 0.8458 
-0.5627 0.1387 0.6353 
-0.471 0.183 0.8802 
-0.3552 0.1989 0.946 
-0.5595 0.1393 0.7777 
-0.6031 0.07552 0.6483 
-0.2976 -0.199 1.005 
-0.3443 -0.1834 1.048 
-0.3793 -0.1989 0.9154 
-0.4356 -0.1834 0.9453 
-0.4354 -0.1988 0.8083 
-0.4971 -0.1831 0.8234 
-0.4616 -0.1983 0.6919 
-0.4871 -0.1398 0.9664 
-0.3889 -0.1399 1.082 
-0.4253 -0.07548 1.099 
-0.611 -0.07388 0.6769 
-0.59 -0.07485 0.8295 
-0.5766 -0.1384 0.6867 
-0.5262 -0.07534 0.974 
-0.5514 -0.1394 0.8312 
-0.524 -0.1823 0.6916 
-0.206 9.6e-05 0.8539 
-0.2037 -0.07522 0.8763 
-0.2514 -0.00027 0.794 
-0.255 -0.07541 0.8161 
-0.2785 -0.000946 0.7242 
-0.2884 -0.07581 0.7443 
-0.286 -0.001857 0.6491 
-0.2813 -0.1397 0.847 
-0.2209 -0.1396 0.9131 
-0.2542 -0.1833 0.9579 
-0.398 -0.1831 0.6882 
-0.3743 -0.1833 0.7892 
-0.3419 -0.1401 0.6796 
-0.3253 -0.1833 0.8814 
-0.3225 -0.1399 0.7671 
-0.3021 -0.07636 0.666 
-0.3085 0.1833 0.9024 
-0.3612 0.1826 0.8151 
-0.3868 0.1813 0.7181 
-0.3102 0.1391 0.7936 
-0.264 0.1398 0.8687 
-0.2278 0.07539 0.8512 
-0.2974 0.07264 0.6331 
-0.2949 0.07386 0.7116 
-0.3325 0.1365 0.622 
-0.2714 0.07484 0.7859 
-0.3334 0.1379 0.7096 
-0.3846 0.1799 0.6177 
-0.5934 0.001736 0.5082 
-0.572 0.07537 0.4957 
-0.539 0.001856 0.3514 
-0.5173 0.07523 0.3411 
-0.479 0.001181 0.1888 
-0.4569 0.0798 0.1913 
-0.4752 0.1398 0.3526 
-0.5299 0.1381 0.4919 
-0.4749 0.1807 0.4967 
-0.3022 0.2057 0.3155 
-0.358 0.195 0.2746 
-0.3652 0.1986 0.4032 
-0.4218 0.1843 0.3769 
-0.4151 0.1956 0.5067 
-0.4119 0.1508 0.2314 
-0.455 -0.1974 0.5744 
-0.5128 -0.1812 0.5593 
-0.4157 -0.1968 0.4613 
-0.4663 -0.1806 0.4315 
-0.3487 -0.1977 0.3554 
-0.3973 -0.1819 0.3096 
-0.5094 -0.1362 0.4031 
-0.5601 -0.1371 0.5425 
-0.589 -0.07266 0.5251 
-0.4727 -0.07256 0.225 
-0.5358 -0.07184 0.3757 
-0.4441 -0.1368 0.2671 
-0.274 -0.002833 0.5747 
-0.295 -0.07689 0.5875 
-0.2436 -0.003539 0.5066 
-0.2677 -0.07709 0.5146 
-0.1965 -0.003765 0.4494 
-0.2221 -0.07672 0.4516 
-0.1363 -0.003363 0.4061 
-0.3101 -0.1395 0.5084 
-0.3377 -0.14 0.5914 
-0.3939 -0.1825 0.5864 
-0.2283 -0.1824 0.3263 
-0.3052 -0.1813 0.4007 
-0.1952 -0.1378 0.3746 
-0.3621 -0.1817 0.4892 
-0.2612 -0.1387 0.4347 
-0.1619 -0.07572 0.4019 
-0.3575 0.1793 0.5196 
-0.3114 0.1806 0.4303 
-0.2507 0.1842 0.3561 
-0.2682 0.1354 0.459 
-0.3095 0.1354 0.5364 
-0.2795 0.07147 0.5559 
-0.1275 0.07087 0.3874 
-0.1922 0.07059 0.4291 
-0.1414 0.1381 0.3504 
-0.2438 0.07073 0.4863 
-0.2114 0.1365 0.3958 
-0.1773 0.1892 0.3019 
-0.06747 -0.002245 0.3792 
-0.09177 -0.07429 0.3694 
0.005383 -0.000677 0.3704 
-0.01582 -0.07292 0.3565 
0.07782 0.001124 0.3802 
0.06144 -0.07181 0.3635 
0.1455 0.002776 0.408 
-0.03026 -0.1382 0.3191 
-0.1168 -0.1374 0.3349 
-0.1345 -0.1868 0.2788 
0.1645 -0.1929 0.2948 
0.07047 -0.195 0.2676 
0.1422 -0.1386 0.3503 
-0.03104 -0.1926 0.2616 
0.05869 -0.1391 0.3249 
0.135 -0.07091 0.389 
-0.09066 0.1937 0.2699 
0.01073 0.1943 0.2598 
0.1212 0.1907 0.2727 
0.03136 0.1387 0.3183 
-0.05917 0.1391 0.3245 
-0.05323 0.07134 0.363 
0.1706 0.07475 0.4046 
0.1011 0.07331 0.3711 
0.2005 0.1378 0.376 
0.02489 0.07211 0.3571 
0.1204 0.1381 0.3344 
0.2236 0.1856 0.3213 
0.4805 -0.001448 0.1977 
0.4739 0.0722 0.2329 
0.5412 -0.002437 0.3577 
0.538 0.07122 0.3818 
0.5955 -0.002438 0.512 
0.5916 0.07183 0.5293 
0.51 0.1363 0.4073 
0.4424 0.1376 0.2711 
0.3901 0.1851 0.3067 
0.4576 0.1966 0.5775 
0.5155 0.1804 0.5628 
0.4171 0.1968 0.4636 
0.4659 0.1812 0.4336 
0.3427 0.2009 0.3514 
0.5627 0.1363 0.5466 
0.2976 -0.2088 0.3115 
0.3585 -0.1958 0.2783 
0.3675 -0.1987 0.4074 
0.4251 -0.1837 0.3832 
0.4184 -0.1948 0.5113 
0.4774 -0.1801 0.5008 
0.478 -0.1392 0.359 
0.4146 -0.1504 0.2394 
0.459 -0.07959 0.2002 
0.5737 -0.07565 0.499 
0.5194 -0.07525 0.3472 
0.5317 -0.1379 0.4953 
0.2041 0.003795 0.452 
0.1992 -0.07028 0.4316 
0.2493 0.004066 0.5095 
0.2498 -0.07012 0.4894 
0.2779 0.003537 0.5772 
0.2841 -0.07064 0.5593 
0.2725 -0.1355 0.4611 
0.2145 -0.1372 0.3957 
0.2468 -0.1873 0.3508 
0.3613 -0.1785 0.524 
0.3135 -0.1812 0.4322 
0.3139 -0.1347 0.5402 
0.3067 0.1819 0.4016 
0.3657 0.181 0.4925 
0.3963 0.1818 0.5888 
0.3144 0.1388 0.5114 
0.2669 0.1379 0.4379 
0.2291 0.07609 0.4545 
0.2979 0.07718 0.5893 
0.2726 0.07699 0.517 
0.3399 0.1398 0.5931 
3 0 1 2 
3 3 4 1 
3 0 5 3 
3 0 3 1 
3 6 7 4 
3 8 9 7 
3 6 10 8 
3 6 8 7 
3 11 12 10 
3 13 14 12 
3 11 5 13 
3 11 13 12 
3 3 6 4 
3 11 10 6 
3 3 5 11 
3 3 11 6 
3 15 7 9 
3 16 4 7 
3 15 17 16 
3 15 16 7 
3 18 1 4 
3 19 2 1 
3 18 20 19 
3 18 19 1 
3 21 22 20 
3 23 24 22 
3 21 17 23 
3 21 23 22 
3 16 18 4 
3 21 20 18 
3 16 17 21 
3 16 21 18 
3 25 26 27 
3 28 29 26 
3 25 30 28 
3 25 28 26 
3 31 32 29 
3 33 34 32 
3 31 35 33 
3 31 33 32 
3 36 37 35 
3 38 39 37 
3 36 30 38 
3 36 38 37 
3 28 31 29 
3 36 35 31 
3 28 30 36 
3 28 36 31 
3 38 40 39 
3 41 42 40 
3 38 30 41 
3 38 41 40 
3 43 44 42 
3 45 46 44 
3 43 47 45 
3 43 45 44 
3 48 49 47 
3 25 27 49 
3 48 30 25 
3 48 25 49 
3 41 43 42 
3 48 47 43 
3 41 30 48 
3 41 48 43 
3 50 51 52 
3 53 54 51 
3 50 55 53 
3 50 53 51 
3 56 57 54 
3 15 9 57 
3 56 17 15 
3 56 15 57 
3 58 23 17 
3 59 24 23 
3 58 55 59 
3 58 59 23 
3 53 56 54 
3 58 17 56 
3 53 55 58 
3 53 58 56 
3 60 61 52 
3 62 63 61 
3 60 64 62 
3 60 62 61 
3 65 66 63 
3 44 46 66 
3 65 42 44 
3 65 44 66 
3 67 40 42 
3 68 39 40 
3 67 64 68 
3 67 68 40 
3 62 65 63 
3 67 42 65 
3 62 64 67 
3 62 67 65 
3 69 70 71 
3 72 73 70 
3 69 74 72 
3 69 72 70 
3 75 76 73 
3 0 2 76 
3 75 5 0 
3 75 0 76 
3 77 13 5 
3 78 14 13 
3 77 74 78 
3 77 78 13 
3 72 75 73 
3 77 5 75 
3 72 74 77 
3 72 77 75 
3 79 80 71 
3 81 82 80 
3 79 83 81 
3 79 81 80 
3 84 85 82 
3 32 34 85 
3 84 29 32 
3 84 32 85 
3 86 26 29 
3 87 27 26 
3 86 83 87 
3 86 87 26 
3 81 84 82 
3 86 29 84 
3 81 83 86 
3 81 86 84 
3 88 89 90 
3 91 92 89 
3 88 93 91 
3 88 91 89 
3 94 95 92 
3 96 71 95 
3 94 97 96 
3 94 96 95 
3 98 99 97 
3 100 101 99 
3 98 93 100 
3 98 100 99 
3 91 94 92 
3 98 97 94 
3 91 93 98 
3 91 98 94 
3 78 102 14 
3 103 104 102 
3 78 74 103 
3 78 103 102 
3 105 106 104 
3 99 101 106 
3 105 97 99 
3 105 99 106 
3 107 96 97 
3 69 71 96 
3 107 74 69 
3 107 69 96 
3 103 105 104 
3 107 97 105 
3 103 74 107 
3 103 107 105 
3 108 109 110 
3 111 112 109 
3 108 113 111 
3 108 111 109 
3 114 115 112 
3 116 34 115 
3 114 117 116 
3 114 116 115 
3 118 119 117 
3 120 90 119 
3 118 113 120 
3 118 120 119 
3 111 114 112 
3 118 117 114 
3 111 113 118 
3 111 118 114 
3 80 95 71 
3 121 92 95 
3 80 82 121 
3 80 121 95 
3 122 89 92 
3 119 90 89 
3 122 117 119 
3 122 119 89 
3 123 116 117 
3 85 34 116 
3 123 82 85 
3 123 85 116 
3 121 122 92 
3 123 117 122 
3 121 82 123 
3 121 123 122 
3 124 125 126 
3 127 128 125 
3 124 129 127 
3 124 127 125 
3 130 131 128 
3 132 133 131 
3 130 134 132 
3 130 132 131 
3 135 136 134 
3 137 110 136 
3 135 129 137 
3 135 137 136 
3 127 130 128 
3 135 134 130 
3 127 129 135 
3 127 135 130 
3 138 115 34 
3 139 112 115 
3 138 140 139 
3 138 139 115 
3 141 109 112 
3 136 110 109 
3 141 134 136 
3 141 136 109 
3 142 132 134 
3 143 133 132 
3 142 140 143 
3 142 143 132 
3 139 141 112 
3 142 134 141 
3 139 140 142 
3 139 142 141 
3 144 106 101 
3 145 104 106 
3 144 146 145 
3 144 145 106 
3 147 102 104 
3 148 14 102 
3 147 149 148 
3 147 148 102 
3 150 151 149 
3 152 126 151 
3 150 146 152 
3 150 152 151 
3 145 147 104 
3 150 149 147 
3 145 146 150 
3 145 150 147 
3 153 131 133 
3 154 128 131 
3 153 155 154 
3 153 154 131 
3 156 125 128 
3 151 126 125 
3 156 149 151 
3 156 151 125 
3 157 148 149 
3 158 14 148 
3 157 155 158 
3 157 158 148 
3 154 156 128 
3 157 149 156 
3 154 155 157 
3 154 157 156 
3 143 159 133 
3 160 161 159 
3 143 140 160 
3 143 160 159 
3 162 163 161 
3 164 165 163 
3 162 166 164 
3 162 164 163 
3 167 168 166 
3 138 34 168 
3 167 140 138 
3 167 138 168 
3 160 162 161 
3 167 166 162 
3 160 140 167 
3 160 167 162 
3 169 37 39 
3 170 35 37 
3 169 171 170 
3 169 170 37 
3 172 33 35 
3 168 34 33 
3 172 166 168 
3 172 168 33 
3 173 164 166 
3 174 165 164 
3 173 171 174 
3 173 174 164 
3 170 172 35 
3 173 166 172 
3 170 171 173 
3 170 173 172 
3 158 12 14 
3 175 10 12 
3 158 155 175 
3 158 175 12 
3 176 8 10 
3 177 9 8 
3 176 178 177 
3 176 177 8 
3 179 180 178 
3 153 133 180 
3 179 155 153 
3 179 153 180 
3 175 176 10 
3 179 178 176 
3 175 155 179 
3 175 179 176 
3 181 163 165 
3 182 161 163 
3 181 183 182 
3 181 182 163 
3 184 159 161 
3 180 133 159 
3 184 178 180 
3 184 180 159 
3 185 177 178 
3 186 9 177 
3 185 183 186 
3 185 186 177 
3 182 184 161 
3 185 178 184 
3 182 183 185 
3 182 185 184 
3 51 187 52 
3 188 189 187 
3 51 54 188 
3 51 188 187 
3 190 191 189 
3 192 193 191 
3 190 194 192 
3 190 192 191 
3 195 196 194 
3 57 9 196 
3 195 54 57 
3 195 57 196 
3 188 190 189 
3 195 194 190 
3 188 54 195 
3 188 195 190 
3 197 198 199 
3 200 201 198 
3 197 202 200 
3 197 200 198 
3 203 204 201 
3 196 9 204 
3 203 194 196 
3 203 196 204 
3 205 192 194 
3 206 193 192 
3 205 202 206 
3 205 206 192 
3 200 203 201 
3 205 194 203 
3 200 202 205 
3 200 205 203 
3 68 207 39 
3 208 209 207 
3 68 64 208 
3 68 208 207 
3 210 211 209 
3 212 213 211 
3 210 214 212 
3 210 212 211 
3 215 216 214 
3 60 52 216 
3 215 64 60 
3 215 60 216 
3 208 210 209 
3 215 214 210 
3 208 64 215 
3 208 215 210 
3 217 191 193 
3 218 189 191 
3 217 219 218 
3 217 218 191 
3 220 187 189 
3 216 52 187 
3 220 214 216 
3 220 216 187 
3 221 212 214 
3 222 213 212 
3 221 219 222 
3 221 222 212 
3 218 220 189 
3 221 214 220 
3 218 219 221 
3 218 221 220 
3 174 223 165 
3 224 225 223 
3 174 171 224 
3 174 224 223 
3 226 227 225 
3 228 229 227 
3 226 230 228 
3 226 228 227 
3 231 232 230 
3 169 39 232 
3 231 171 169 
3 231 169 232 
3 224 226 225 
3 231 230 226 
3 224 171 231 
3 224 231 226 
3 233 211 213 
3 234 209 211 
3 233 235 234 
3 233 234 211 
3 236 207 209 
3 232 39 207 
3 236 230 232 
3 236 232 207 
3 237 228 230 
3 238 229 228 
3 237 235 238 
3 237 238 228 
3 234 236 209 
3 237 230 236 
3 234 235 237 
3 234 237 236 
3 186 204 9 
3 239 201 204 
3 186 183 239 
3 186 239 204 
3 240 198 201 
3 241 199 198 
3 240 242 241 
3 240 241 198 
3 243 244 242 
3 181 165 244 
3 243 183 181 
3 243 181 244 
3 239 240 201 
3 243 242 240 
3 239 183 243 
3 239 243 240 
3 245 227 229 
3 246 225 227 
3 245 247 246 
3 245 246 227 
3 248 223 225 
3 244 165 223 
3 248 242 244 
3 248 244 223 
3 249 241 242 
3 250 199 241 
3 249 247 250 
3 249 250 241 
3 246 248 225 
3 249 242 248 
3 246 247 249 
3 246 249 248 
3 206 251 193 
3 252 253 251 
3 206 202 252 
3 206 252 251 
3 254 255 253 
3 256 257 255 
3 254 258 256 
3 254 256 255 
3 259 260 258 
3 197 199 260 
3 259 202 197 
3 259 197 260 
3 252 254 253 
3 259 258 254 
3 252 202 259 
3 252 259 254 
3 261 262 263 
3 264 265 262 
3 261 266 264 
3 261 264 262 
3 267 268 265 
3 260 199 268 
3 267 258 260 
3 267 260 268 
3 269 256 258 
3 270 257 256 
3 269 266 270 
3 269 270 256 
3 264 267 265 
3 269 258 267 
3 264 266 269 
3 264 269 267 
3 222 271 213 
3 272 273 271 
3 222 219 272 
3 222 272 271 
3 274 275 273 
3 276 277 275 
3 274 278 276 
3 274 276 275 
3 279 280 278 
3 217 193 280 
3 279 219 217 
3 279 217 280 
3 272 274 273 
3 279 278 274 
3 272 219 279 
3 272 279 274 
3 281 255 257 
3 282 253 255 
3 281 283 282 
3 281 282 255 
3 284 251 253 
3 280 193 251 
3 284 278 280 
3 284 280 251 
3 285 276 278 
3 286 277 276 
3 285 283 286 
3 285 286 276 
3 282 284 253 
3 285 278 284 
3 282 283 285 
3 282 285 284 
3 238 287 229 
3 288 289 287 
3 238 235 288 
3 238 288 287 
3 290 291 289 
3 292 293 291 
3 290 294 292 
3 290 292 291 
3 295 296 294 
3 233 213 296 
3 295 235 233 
3 295 233 296 
3 288 290 289 
3 295 294 290 
3 288 235 295 
3 288 295 290 
3 297 275 277 
3 298 273 275 
3 297 299 298 
3 297 298 275 
3 300 271 273 
3 296 213 271 
3 300 294 296 
3 300 296 271 
3 301 292 294 
3 302 293 292 
3 301 299 302 
3 301 302 292 
3 298 300 273 
3 301 294 300 
3 298 299 301 
3 298 301 300 
3 250 268 199 
3 303 265 268 
3 250 247 303 
3 250 303 268 
3 304 262 265 
3 305 263 262 
3 304 306 305 
3 304 305 262 
3 307 308 306 
3 245 229 308 
3 307 247 245 
3 307 245 308 
3 303 304 265 
3 307 306 304 
3 303 247 307 
3 303 307 304 
3 309 291 293 
3 310 289 291 
3 309 311 310 
3 309 310 291 
3 312 287 289 
3 308 229 287 
3 312 306 308 
3 312 308 287 
3 313 305 306 
3 314 263 305 
3 313 311 314 
3 313 314 305 
3 310 312 289 
3 313 306 312 
3 310 311 313 
3 310 313 312 
3 270 315 257 
3 316 317 315 
3 270 266 316 
3 270 316 315 
3 318 319 317 
3 320 321 319 
3 318 322 320 
3 318 320 319 
3 323 324 322 
3 261 263 324 
3 323 266 261 
3 323 261 324 
3 316 318 317 
3 323 322 318 
3 316 266 323 
3 316 323 318 
3 325 326 327 
3 328 329 326 
3 325 330 328 
3 325 328 326 
3 331 332 329 
3 324 263 332 
3 331 322 324 
3 331 324 332 
3 333 320 322 
3 334 321 320 
3 333 330 334 
3 333 334 320 
3 328 331 329 
3 333 322 331 
3 328 330 333 
3 328 333 331 
3 286 335 277 
3 336 337 335 
3 286 283 336 
3 286 336 335 
3 338 339 337 
3 340 341 339 
3 338 342 340 
3 338 340 339 
3 343 344 342 
3 281 257 344 
3 343 283 281 
3 343 281 344 
3 336 338 337 
3 343 342 338 
3 336 283 343 
3 336 343 338 
3 345 319 321 
3 346 317 319 
3 345 347 346 
3 345 346 319 
3 348 315 317 
3 344 257 315 
3 348 342 344 
3 348 344 315 
3 349 340 342 
3 350 341 340 
3 349 347 350 
3 349 350 340 
3 346 348 317 
3 349 342 348 
3 346 347 349 
3 346 349 348 
3 302 351 293 
3 352 353 351 
3 302 299 352 
3 302 352 351 
3 354 355 353 
3 356 357 355 
3 354 358 356 
3 354 356 355 
3 359 360 358 
3 297 277 360 
3 359 299 297 
3 359 297 360 
3 352 354 353 
3 359 358 354 
3 352 299 359 
3 352 359 354 
3 361 339 341 
3 362 337 339 
3 361 363 362 
3 361 362 339 
3 364 335 337 
3 360 277 335 
3 364 358 360 
3 364 360 335 
3 365 356 358 
3 366 357 356 
3 365 363 366 
3 365 366 356 
3 362 364 337 
3 365 358 364 
3 362 363 365 
3 362 365 364 
3 314 332 263 
3 367 329 332 
3 314 311 367 
3 314 367 332 
3 368 326 329 
3 369 327 326 
3 368 370 369 
3 368 369 326 
3 371 372 370 
3 309 293 372 
3 371 311 309 
3 371 309 372 
3 367 368 329 
3 371 370 368 
3 367 311 371 
3 367 371 368 
3 373 355 357 
3 374 353 355 
3 373 375 374 
3 373 374 355 
3 376 351 353 
3 372 293 351 
3 376 370 372 
3 376 372 351 
3 377 369 370 
3 378 327 369 
3 377 375 378 
3 377 378 369 
3 374 376 353 
3 377 370 376 
3 374 375 377 
3 374 377 376 
3 334 379 321 
3 380 381 379 
3 334 330 380 
3 334 380 379 
3 382 383 381 
3 384 90 383 
3 382 385 384 
3 382 384 383 
3 386 387 385 
3 325 327 387 
3 386 330 325 
3 386 325 387 
3 380 382 381 
3 386 385 382 
3 380 330 386 
3 380 386 382 
3 100 388 101 
3 389 390 388 
3 100 93 389 
3 100 389 388 
3 391 392 390 
3 387 327 392 
3 391 385 387 
3 391 387 392 
3 393 384 385 
3 88 90 384 
3 393 93 88 
3 393 88 384 
3 389 391 390 
3 393 385 391 
3 389 93 393 
3 389 393 391 
3 350 394 341 
3 395 396 394 
3 350 347 395 
3 350 395 394 
3 397 398 396 
3 399 110 398 
3 397 400 399 
3 397 399 398 
3 401 402 400 
3 345 321 402 
3 401 347 345 
3 401 345 402 
3 395 397 396 
3 401 400 397 
3 395 347 401 
3 395 401 397 
3 120 383 90 
3 403 381 383 
3 120 113 403 
3 120 403 383 
3 404 379 381 
3 402 321 379 
3 404 400 402 
3 404 402 379 
3 405 399 400 
3 108 110 399 
3 405 113 108 
3 405 108 399 
3 403 404 381 
3 405 400 404 
3 403 113 405 
3 403 405 404 
3 366 406 357 
3 407 408 406 
3 366 363 407 
3 366 407 406 
3 409 410 408 
3 411 126 410 
3 409 412 411 
3 409 411 410 
3 413 414 412 
3 361 341 414 
3 413 363 361 
3 413 361 414 
3 407 409 408 
3 413 412 409 
3 407 363 413 
3 407 413 409 
3 137 398 110 
3 415 396 398 
3 137 129 415 
3 137 415 398 
3 416 394 396 
3 414 341 394 
3 416 412 414 
3 416 414 394 
3 417 411 412 
3 124 126 411 
3 417 129 124 
3 417 124 411 
3 415 416 396 
3 417 412 416 
3 415 129 417 
3 415 417 416 
3 378 392 327 
3 418 390 392 
3 378 375 418 
3 378 418 392 
3 419 388 390 
3 420 101 388 
3 419 421 420 
3 419 420 388 
3 422 423 421 
3 373 357 423 
3 422 375 373 
3 422 373 423 
3 418 419 390 
3 422 421 419 
3 418 375 422 
3 418 422 419 
3 152 410 126 
3 424 408 410 
3 152 146 424 
3 152 424 410 
3 425 406 408 
3 423 357 406 
3 425 421 423 
3 425 423 406 
3 426 420 421 
3 144 101 420 
3 426 146 144 
3 426 144 420 
3 424 425 408 
3 426 421 425 
3 424 146 426 
3 424 426 425 
3 427 428 429 
3 430 431 428 
3 427 432 430 
3 427 430 428 
3 433 434 431 
3 435 436 434 
3 433 437 435 
3 433 435 434 
3 438 439 437 
3 440 441 439 
3 438 432 440 
3 438 440 439 
3 430 433 431 
3 438 437 433 
3 430 432 438 
3 430 438 433 
3 442 443 444 
3 445 446 443 
3 442 447 445 
3 442 445 443 
3 448 449 446 
3 439 441 449 
3 448 437 439 
3 448 439 449 
3 450 435 437 
3 451 436 435 
3 450 447 451 
3 450 451 435 
3 445 448 446 
3 450 437 448 
3 445 447 450 
3 445 450 448 
3 452 453 454 
3 455 456 453 
3 452 457 455 
3 452 455 453 
3 458 459 456 
3 460 461 459 
3 458 462 460 
3 458 460 459 
3 463 464 462 
3 465 429 464 
3 463 457 465 
3 463 465 464 
3 455 458 456 
3 463 462 458 
3 455 457 463 
3 455 463 458 
3 466 434 436 
3 467 431 434 
3 466 468 467 
3 466 467 434 
3 469 428 431 
3 464 429 428 
3 469 462 464 
3 469 464 428 
3 470 460 462 
3 471 461 460 
3 470 468 471 
3 470 471 460 
3 467 469 431 
3 470 462 469 
3 467 468 470 
3 467 470 469 
3 472 473 474 
3 475 476 473 
3 472 477 475 
3 472 475 473 
3 478 479 476 
3 480 481 479 
3 478 482 480 
3 478 480 479 
3 483 484 482 
3 485 454 484 
3 483 477 485 
3 483 485 484 
3 475 478 476 
3 483 482 478 
3 475 477 483 
3 475 483 478 
3 486 459 461 
3 487 456 459 
3 486 488 487 
3 486 487 459 
3 489 453 456 
3 484 454 453 
3 489 482 484 
3 489 484 453 
3 490 480 482 
3 491 481 480 
3 490 488 491 
3 490 491 480 
3 487 489 456 
3 490 482 489 
3 487 488 490 
3 487 490 489 
3 492 449 441 
3 493 446 449 
3 492 494 493 
3 492 493 449 
3 495 443 446 
3 496 444 443 
3 495 497 496 
3 495 496 443 
3 498 499 497 
3 500 474 499 
3 498 494 500 
3 498 500 499 
3 493 495 446 
3 498 497 495 
3 493 494 498 
3 493 498 495 
3 501 479 481 
3 502 476 479 
3 501 503 502 
3 501 502 479 
3 504 473 476 
3 499 474 473 
3 504 497 499 
3 504 499 473 
3 505 496 497 
3 506 444 496 
3 505 503 506 
3 505 506 496 
3 502 504 476 
3 505 497 504 
3 502 503 505 
3 502 505 504 
3 451 507 436 
3 508 509 507 
3 451 447 508 
3 451 508 507 
3 510 511 509 
3 512 513 511 
3 510 514 512 
3 510 512 511 
3 515 516 514 
3 442 444 516 
3 515 447 442 
3 515 442 516 
3 508 510 509 
3 515 514 510 
3 508 447 515 
3 508 515 510 
3 517 518 519 
3 520 521 518 
3 517 522 520 
3 517 520 518 
3 523 524 521 
3 516 444 524 
3 523 514 516 
3 523 516 524 
3 525 512 514 
3 526 513 512 
3 525 522 526 
3 525 526 512 
3 520 523 521 
3 525 514 523 
3 520 522 525 
3 520 525 523 
3 471 527 461 
3 528 529 527 
3 471 468 528 
3 471 528 527 
3 530 531 529 
3 532 533 531 
3 530 534 532 
3 530 532 531 
3 535 536 534 
3 466 436 536 
3 535 468 466 
3 535 466 536 
3 528 530 529 
3 535 534 530 
3 528 468 535 
3 528 535 530 
3 537 511 513 
3 538 509 511 
3 537 539 538 
3 537 538 511 
3 540 507 509 
3 536 436 507 
3 540 534 536 
3 540 536 507 
3 541 532 534 
3 542 533 532 
3 541 539 542 
3 541 542 532 
3 538 540 509 
3 541 534 540 
3 538 539 541 
3 538 541 540 
3 491 543 481 
3 544 545 543 
3 491 488 544 
3 491 544 543 
3 546 547 545 
3 548 549 547 
3 546 550 548 
3 546 548 547 
3 551 552 550 
3 486 461 552 
3 551 488 486 
3 551 486 552 
3 544 546 545 
3 551 550 546 
3 544 488 551 
3 544 551 546 
3 553 531 533 
3 554 529 531 
3 553 555 554 
3 553 554 531 
3 556 527 529 
3 552 461 527 
3 556 550 552 
3 556 552 527 
3 557 548 550 
3 558 549 548 
3 557 555 558 
3 557 558 548 
3 554 556 529 
3 557 550 556 
3 554 555 557 
3 554 557 556 
3 506 524 444 
3 559 521 524 
3 506 503 559 
3 506 559 524 
3 560 518 521 
3 561 519 518 
3 560 562 561 
3 560 561 518 
3 563 564 562 
3 501 481 564 
3 563 503 501 
3 563 501 564 
3 559 560 521 
3 563 562 560 
3 559 503 563 
3 559 563 560 
3 565 547 549 
3 566 545 547 
3 565 567 566 
3 565 566 547 
3 568 543 545 
3 564 481 543 
3 568 562 564 
3 568 564 543 
3 569 561 562 
3 570 519 561 
3 569 567 570 
3 569 570 561 
3 566 568 545 
3 569 562 568 
3 566 567 569 
3 566 569 568 
3 526 571 513 
3 572 573 571 
3 526 522 572 
3 526 572 571 
3 574 575 573 
3 576 577 575 
3 574 578 576 
3 574 576 575 
3 579 580 578 
3 517 519 580 
3 579 522 517 
3 579 517 580 
3 572 574 573 
3 579 578 574 
3 572 522 579 
3 572 579 574 
3 581 582 583 
3 584 585 582 
3 581 586 584 
3 581 584 582 
3 587 588 585 
3 580 519 588 
3 587 578 580 
3 587 580 588 
3 589 576 578 
3 590 577 576 
3 589 586 590 
3 589 590 576 
3 584 587 585 
3 589 578 587 
3 584 586 589 
3 584 589 587 
3 542 591 533 
3 592 593 591 
3 542 539 592 
3 542 592 591 
3 594 595 593 
3 596 597 595 
3 594 598 596 
3 594 596 595 
3 599 600 598 
3 537 513 600 
3 599 539 537 
3 599 537 600 
3 592 594 593 
3 599 598 594 
3 592 539 599 
3 592 599 594 
3 601 575 577 
3 602 573 575 
3 601 603 602 
3 601 602 575 
3 604 571 573 
3 600 513 571 
3 604 598 600 
3 604 600 571 
3 605 596 598 
3 606 597 596 
3 605 603 606 
3 605 606 596 
3 602 604 573 
3 605 598 604 
3 602 603 605 
3 602 605 604 
3 558 607 549 
3 608 609 607 
3 558 555 608 
3 558 608 607 
3 610 611 609 
3 612 613 611 
3 610 614 612 
3 610 612 611 
3 615 616 614 
3 553 533 616 
3 615 555 553 
3 615 553 616 
3 608 610 609 
3 615 614 610 
3 608 555 615 
3 608 615 610 
3 617 595 597 
3 618 593 595 
3 617 619 618 
3 617 618 595 
3 620 591 593 
3 616 533 591 
3 620 614 616 
3 620 616 591 
3 621 612 614 
3 622 613 612 
3 621 619 622 
3 621 622 612 
3 618 620 593 
3 621 614 620 
3 618 619 621 
3 618 621 620 
3 570 588 519 
3 623 585 588 
3 570 567 623 
3 570 623 588 
3 624 582 585 
3 625 583 582 
3 624 626 625 
3 624 625 582 
3 627 628 626 
3 565 549 628 
3 627 567 565 
3 627 565 628 
3 623 624 585 
3 627 626 624 
3 623 567 627 
3 623 627 624 
3 629 611 613 
3 630 609 611 
3 629 631 630 
3 629 630 611 
3 632 607 609 
3 628 549 607 
3 632 626 628 
3 632 628 607 
3 633 625 626 
3 634 583 625 
3 633 631 634 
3 633 634 625 
3 630 632 609 
3 633 626 632 
3 630 631 633 
3 630 633 632 
3 590 635 577 
3 636 637 635 
3 590 586 636 
3 590 636 635 
3 638 639 637 
3 640 52 639 
3 638 641 640 
3 638 640 639 
3 642 643 641 
3 581 583 643 
3 642 586 581 
3 642 581 643 
3 636 638 637 
3 642 641 638 
3 636 586 642 
3 636 642 638 
3 59 644 24 
3 645 646 644 
3 59 55 645 
3 59 645 644 
3 647 648 646 
3 643 583 648 
3 647 641 643 
3 647 643 648 
3 649 640 641 
3 50 52 640 
3 649 55 50 
3 649 50 640 
3 645 647 646 
3 649 641 647 
3 645 55 649 
3 645 649 647 
3 606 650 597 
3 651 652 650 
3 606 603 651 
3 606 651 650 
3 653 654 652 
3 655 46 654 
3 653 656 655 
3 653 655 654 
3 657 658 656 
3 601 577 658 
3 657 603 601 
3 657 601 658 
3 651 653 652 
3 657 656 653 
3 651 603 657 
3 651 657 653 
3 61 639 52 
3 659 637 639 
3 61 63 659 
3 61 659 639 
3 660 635 637 
3 658 577 635 
3 660 656 658 
3 660 658 635 
3 661 655 656 
3 66 46 655 
3 661 63 66 
3 661 66 655 
3 659 660 637 
3 661 656 660 
3 659 63 661 
3 659 661 660 
3 622 662 613 
3 663 664 662 
3 622 619 663 
3 622 663 662 
3 665 666 664 
3 667 668 666 
3 665 669 667 
3 665 667 666 
3 670 671 669 
3 617 597 671 
3 670 619 617 
3 670 617 671 
3 663 665 664 
3 670 669 665 
3 663 619 670 
3 663 670 665 
3 672 654 46 
3 673 652 654 
3 672 674 673 
3 672 673 654 
3 675 650 652 
3 671 597 650 
3 675 669 671 
3 675 671 650 
3 676 667 669 
3 677 668 667 
3 676 674 677 
3 676 677 667 
3 673 675 652 
3 676 669 675 
3 673 674 676 
3 673 676 675 
3 634 648 583 
3 678 646 648 
3 634 631 678 
3 634 678 648 
3 679 644 646 
3 680 24 644 
3 679 681 680 
3 679 680 644 
3 682 683 681 
3 629 613 683 
3 682 631 629 
3 682 629 683 
3 678 679 646 
3 682 681 679 
3 678 631 682 
3 678 682 679 
3 684 666 668 
3 685 664 666 
3 684 686 685 
3 684 685 666 
3 687 662 664 
3 683 613 662 
3 687 681 683 
3 687 683 662 
3 688 680 681 
3 689 24 680 
3 688 686 689 
3 688 689 680 
3 685 687 664 
3 688 681 687 
3 685 686 688 
3 685 688 687 
3 677 690 668 
3 691 692 690 
3 677 674 691 
3 677 691 690 
3 693 694 692 
3 695 696 694 
3 693 697 695 
3 693 695 694 
3 698 699 697 
3 672 46 699 
3 698 674 672 
3 698 672 699 
3 691 693 692 
3 698 697 693 
3 691 674 698 
3 691 698 693 
3 700 49 27 
3 701 47 49 
3 700 702 701 
3 700 701 49 
3 703 45 47 
3 699 46 45 
3 703 697 699 
3 703 699 45 
3 704 695 697 
3 705 696 695 
3 704 702 705 
3 704 705 695 
3 701 703 47 
3 704 697 703 
3 701 702 704 
3 701 704 703 
3 689 22 24 
3 706 20 22 
3 689 686 706 
3 689 706 22 
3 707 19 20 
3 708 2 19 
3 707 709 708 
3 707 708 19 
3 710 711 709 
3 684 668 711 
3 710 686 684 
3 710 684 711 
3 706 707 20 
3 710 709 707 
3 706 686 710 
3 706 710 707 
3 712 694 696 
3 713 692 694 
3 712 714 713 
3 712 713 694 
3 715 690 692 
3 711 668 690 
3 715 709 711 
3 715 711 690 
3 716 708 709 
3 717 2 708 
3 716 714 717 
3 716 717 708 
3 713 715 692 
3 716 709 715 
3 713 714 716 
3 713 716 715 
3 70 718 71 
3 719 720 718 
3 70 73 719 
3 70 719 718 
3 721 722 720 
3 723 429 722 
3 721 724 723 
3 721 723 722 
3 725 726 724 
3 76 2 726 
3 725 73 76 
3 725 76 726 
3 719 721 720 
3 725 724 721 
3 719 73 725 
3 719 725 721 
3 440 727 441 
3 728 729 727 
3 440 432 728 
3 440 728 727 
3 730 731 729 
3 726 2 731 
3 730 724 726 
3 730 726 731 
3 732 723 724 
3 427 429 723 
3 732 432 427 
3 732 427 723 
3 728 730 729 
3 732 724 730 
3 728 432 732 
3 728 732 730 
3 87 733 27 
3 734 735 733 
3 87 83 734 
3 87 734 733 
3 736 737 735 
3 738 454 737 
3 736 739 738 
3 736 738 737 
3 740 741 739 
3 79 71 741 
3 740 83 79 
3 740 79 741 
3 734 736 735 
3 740 739 736 
3 734 83 740 
3 734 740 736 
3 465 722 429 
3 742 720 722 
3 465 457 742 
3 465 742 722 
3 743 718 720 
3 741 71 718 
3 743 739 741 
3 743 741 718 
3 744 738 739 
3 452 454 738 
3 744 457 452 
3 744 452 738 
3 742 743 720 
3 744 739 743 
3 742 457 744 
3 742 744 743 
3 705 745 696 
3 746 747 745 
3 705 702 746 
3 705 746 745 
3 748 749 747 
3 750 474 749 
3 748 751 750 
3 748 750 749 
3 752 753 751 
3 700 27 753 
3 752 702 700 
3 752 700 753 
3 746 748 747 
3 752 751 748 
3 746 702 752 
3 746 752 748 
3 485 737 454 
3 754 735 737 
3 485 477 754 
3 485 754 737 
3 755 733 735 
3 753 27 733 
3 755 751 753 
3 755 753 733 
3 756 750 751 
3 472 474 750 
3 756 477 472 
3 756 472 750 
3 754 755 735 
3 756 751 755 
3 754 477 756 
3 754 756 755 
3 717 731 2 
3 757 729 731 
3 717 714 757 
3 717 757 731 
3 758 727 729 
3 759 441 727 
3 758 760 759 
3 758 759 727 
3 761 762 760 
3 712 696 762 
3 761 714 712 
3 761 712 762 
3 757 758 729 
3 761 760 758 
3 757 714 761 
3 757 761 758 
3 500 749 474 
3 763 747 749 
3 500 494 763 
3 500 763 749 
3 764 745 747 
3 762 696 745 
3 764 760 762 
3 764 762 745 
3 765 759 760 
3 492 441 759 
3 765 494 492 
3 765 492 759 
3 763 764 747 
3 765 760 764 
3 763 494 765 
3 763 765 764 
